<svg xmlns="http://www.w3.org/2000/svg" viewBox="0 0 48 48" width="48px" height="48px"><path fill="#dfe7f5" d="M42.233,18.619l-12.608-7.588c-0.806-0.485-1.81-0.503-2.633-0.048l-12.875,7.125 c-0.823,0.455-1.341,1.316-1.358,2.256l-0.267,14.713c-0.017,0.941,0.469,1.819,1.275,2.304l12.608,7.588 c0.806,0.485,1.81,0.503,2.633,0.048l12.875-7.125c0.823-0.456,1.341-1.316,1.358-2.256l0.267-14.713 C43.525,19.982,43.039,19.104,42.233,18.619z"/><line x1="35.409" x2="39.5" y1="35.758" y2="33.341" fill="none" stroke="#fa5a05" stroke-linecap="round" stroke-linejoin="round" stroke-miterlimit="10" stroke-width="3"/><path fill="none" stroke="#fa5a05" stroke-linecap="round" stroke-linejoin="round" stroke-miterlimit="10" stroke-width="3" d="M8.5,21v11.77c0,0.354,0.187,0.681,0.491,0.861l14.5,8.568c0.314,0.185,0.704,0.185,1.017,0l5.426-3.206"/><path fill="none" stroke="#fa5a05" stroke-linecap="round" stroke-linejoin="round" stroke-miterlimit="10" stroke-width="3" d="M39.5,27.288V15.23c0-0.354-0.187-0.681-0.491-0.861l-14.5-8.568c-0.314-0.185-0.704-0.185-1.017,0L8.5,14.659"/><polyline fill="none" stroke="#fa5a05" stroke-linecap="round" stroke-linejoin="round" stroke-miterlimit="10" stroke-width="3" points="44.5,22.5 39.5,27.5 34.5,22.5"/><polyline fill="none" stroke="#fa5a05" stroke-linecap="round" stroke-linejoin="round" stroke-miterlimit="10" stroke-width="3" points="3.5,25.5 8.5,20.5 13.5,25.5"/></svg>